<svg width="208" height="276" viewBox="0 0 208 276" fill="none" xmlns="http://www.w3.org/2000/svg">
<path d="M207.179 110.56C211.5 81.6622 189.504 66.1288 159.425 55.7665L169.183 16.6225L145.359 10.685L135.86 48.7985C129.596 47.2361 123.164 45.764 116.772 44.3045L126.34 5.93958L102.53 0.00216644L92.7673 39.1335C87.5844 37.9532 82.4938 36.7867 77.555 35.5576L77.5826 35.4345L44.7287 27.2289L38.3912 52.6789C38.3912 52.6789 56.0666 56.7313 55.6942 56.9807C65.3416 59.389 67.0862 65.7764 66.7965 70.8393L55.6814 115.434C56.3457 115.602 57.2074 115.846 58.1583 116.228C57.3634 116.031 56.5177 115.816 55.64 115.605L40.0605 178.076C38.8815 181.007 35.8889 185.407 29.1439 183.736C29.3826 184.082 11.8282 179.414 11.8282 179.414L6.13354e-07 206.69L31.0031 214.42C36.7707 215.866 42.4227 217.38 47.9887 218.803L38.1302 258.396L61.9266 264.334L71.6897 225.161C78.1906 226.926 84.4995 228.554 90.6757 230.089L80.9455 269.077L104.771 275.014L114.628 235.496C155.253 243.185 185.8 240.085 198.658 203.333C209.018 173.744 198.142 156.677 176.769 145.547C192.336 141.957 204.061 131.716 207.188 110.563L207.18 110.557L207.179 110.56ZM152.747 186.901C145.384 216.49 95.5732 200.495 79.4238 196.484L92.5063 144.031C108.655 148.063 160.441 156.042 152.748 186.901L152.747 186.901ZM160.115 110.131C153.398 137.046 111.94 123.372 98.4915 120.019L110.353 72.4462C123.801 75.7991 167.111 82.0571 160.117 110.131L160.115 110.131Z" fill="white"/>
</svg>
